<?xml version="1.0" standalone="no"?>
<!DOCTYPE svg PUBLIC "-//W3C//DTD SVG 20010904//EN"
 "http://www.w3.org/TR/2001/REC-SVG-20010904/DTD/svg10.dtd">
<svg version="1.0" xmlns="http://www.w3.org/2000/svg"
 width="970.000000pt" height="970.000000pt" viewBox="0 0 970.000000 970.000000"
 preserveAspectRatio="xMidYMid meet">
<metadata>
Created by potrace 1.11, written by Peter Selinger 2001-2013
</metadata>
<g transform="translate(0.000000,970.000000) scale(0.100000,-0.100000)"
fill="#000000" stroke="none">
<path d="M3179 8666 c-3 -3 -16 -7 -29 -9 -45 -8 -103 -37 -144 -71 -52 -43
-108 -96 -100 -96 3 0 -10 -16 -30 -35 -20 -19 -36 -37 -36 -40 0 -2 -25 -30
-55 -61 -30 -32 -55 -59 -55 -62 0 -2 -16 -19 -35 -38 -19 -18 -35 -37 -35
-43 0 -5 -9 -13 -21 -16 -11 -4 -18 -9 -15 -12 3 -3 -6 -16 -19 -29 -14 -13
-25 -28 -25 -34 0 -5 -7 -10 -17 -10 -9 0 -14 -3 -10 -6 3 -3 -4 -16 -16 -28
-12 -11 -42 -43 -67 -71 -25 -27 -49 -49 -53 -47 -5 1 -6 -1 -3 -6 3 -5 -3
-15 -12 -24 -9 -9 -35 -36 -56 -61 -22 -25 -44 -43 -49 -40 -6 3 -7 1 -4 -4 4
-6 -7 -24 -23 -41 l-29 -31 -448 -2 c-512 -2 -503 -1 -503 -11 0 -5 -13 -8
-29 -8 -17 0 -33 -5 -36 -11 -4 -5 -12 -8 -18 -6 -7 2 -18 -3 -26 -10 -7 -8
-20 -12 -28 -9 -8 3 -12 2 -9 -3 6 -9 -47 -51 -64 -51 -5 0 -10 -4 -10 -9 0
-4 -15 -25 -34 -45 -19 -20 -32 -36 -30 -36 3 0 -4 -12 -15 -26 -12 -15 -21
-33 -21 -40 0 -8 -4 -14 -10 -14 -5 0 -10 -9 -10 -21 0 -11 -4 -28 -9 -37 -5
-10 -11 -38 -13 -62 -2 -25 -7 -51 -12 -58 -4 -6 -3 -12 2 -12 5 0 9 -7 9 -15
0 -8 -5 -15 -10 -15 -6 0 -6 -5 -1 -12 11 -16 11 -39 1 -55 -5 -7 -4 -13 0
-13 9 0 8 -102 -1 -126 -3 -8 -2 -14 2 -14 5 0 7 -201 3 -275 -1 -6 -47 -10
-119 -9 -64 0 -145 -5 -180 -11 -34 -7 -62 -9 -62 -6 0 3 -4 0 -9 -7 -4 -7
-14 -15 -22 -16 -70 -14 -188 -109 -245 -196 -16 -25 -33 -48 -39 -52 -5 -4
-6 -8 -1 -8 5 0 4 -6 -1 -12 -14 -17 -40 -103 -48 -156 -4 -23 -7 -613 -6
-1310 0 -1092 2 -1274 15 -1321 8 -30 12 -59 9 -64 -3 -6 -1 -7 5 -3 7 4 12 1
12 -9 0 -9 9 -30 21 -46 11 -16 18 -29 15 -29 -6 0 30 -44 85 -101 26 -27 51
-49 57 -49 5 0 13 -7 16 -16 3 -8 10 -12 16 -9 5 3 10 2 10 -3 0 -10 53 -36
66 -32 4 1 10 -3 14 -10 4 -6 13 -13 21 -14 8 -2 25 -6 39 -9 21 -6 52 -11 91
-16 4 -1 7 -40 8 -87 1 -67 -1 -84 -11 -78 -10 6 -11 5 -1 -7 9 -11 12 -64 12
-175 0 -87 0 -169 0 -181 1 -22 4 -23 76 -20 46 2 76 -1 79 -7 3 -7 5 -7 5 -1
1 11 92 12 110 1 6 -4 11 -4 11 1 0 4 60 8 133 8 l132 0 3 240 c1 132 2 245 3
250 0 6 -2 19 -4 31 -5 19 -1 21 44 21 28 1 53 3 56 7 3 3 14 1 24 -5 14 -7
19 -6 19 3 0 10 2 10 9 -1 6 -9 11 -10 15 -2 4 6 12 8 19 4 17 -10 57 -10 57
0 0 6 5 6 13 1 6 -5 26 -8 42 -7 17 2 62 2 100 2 39 -1 120 -2 180 -2 l110 0
0 -49 c0 -38 -3 -47 -15 -43 -13 4 -13 4 0 -7 11 -10 15 -34 15 -98 -1 -47 -4
-90 -7 -95 -4 -6 -3 -17 2 -25 5 -9 4 -20 -3 -29 -7 -8 -7 -12 -2 -9 6 4 10
-18 10 -57 0 -35 -4 -61 -9 -58 -5 4 -5 0 0 -8 5 -8 9 -23 10 -34 0 -11 2 -24
2 -30 2 -9 529 -12 538 -3 2 3 4 118 4 256 1 193 4 251 13 245 7 -4 7 -1 -1
10 -8 9 -11 20 -8 25 3 5 73 9 156 8 82 0 150 3 150 7 0 4 9 3 20 -3 15 -8 20
-8 20 2 0 10 2 10 9 -1 6 -9 11 -10 15 -2 4 6 12 8 19 4 17 -10 57 -10 57 0 0
6 5 6 13 1 6 -5 26 -8 42 -7 47 4 169 3 174 -2 2 -3 10 0 18 6 7 6 13 7 13 2
0 -9 68 -8 77 1 3 2 18 0 34 -4 17 -5 31 -5 35 1 3 5 11 6 17 2 15 -9 49 -9
65 1 6 4 12 3 12 -1 0 -5 15 -8 33 -6 45 5 170 3 176 -2 2 -3 10 0 18 6 7 6
13 7 13 2 0 -9 68 -8 77 1 3 2 18 0 34 -4 17 -5 31 -5 35 1 4 7 10 6 18 0 7
-6 17 -6 26 -1 8 5 21 5 32 -1 13 -7 18 -6 18 3 0 10 2 10 8 1 5 -8 13 -9 22
-3 8 5 21 5 31 -1 10 -5 20 -5 23 0 6 9 48 7 65 -4 6 -3 11 0 11 7 0 10 2 10
8 1 5 -8 13 -9 22 -3 8 5 21 5 31 -1 10 -5 20 -5 23 0 6 9 48 7 65 -4 6 -3 11
0 11 7 0 10 2 10 8 1 5 -8 13 -9 22 -3 8 5 21 5 31 -1 10 -5 20 -5 23 0 6 9
48 7 65 -4 6 -3 11 0 11 7 0 10 2 10 8 1 5 -8 13 -9 22 -3 8 5 21 5 31 -1 10
-5 20 -5 23 0 6 9 48 7 65 -4 6 -3 11 0 11 7 0 10 2 10 8 1 5 -8 13 -9 22 -3
8 5 21 5 31 -1 10 -5 20 -5 23 0 6 9 48 7 65 -3 5 -3 12 0 14 6 4 10 6 10 6 0
1 -9 6 -10 20 -2 14 7 22 7 26 0 4 -6 11 -8 16 -4 17 10 59 12 65 2 3 -4 10
-5 16 -2 10 7 78 13 78 8 0 -5 -51 -54 -56 -54 -5 0 -92 -68 -104 -80 -3 -3
-21 -17 -40 -30 -19 -14 -43 -33 -52 -42 -10 -10 -23 -18 -29 -18 -8 0 -8 -5
1 -15 7 -8 19 -15 26 -15 8 0 14 -4 14 -9 0 -5 10 -11 23 -13 12 -2 21 -8 20
-14 -1 -6 8 -10 20 -10 13 1 21 -4 19 -12 -1 -8 2 -11 7 -8 5 4 28 -1 51 -10
31 -12 40 -21 35 -33 -5 -13 -4 -14 6 -4 17 17 33 17 26 0 -3 -8 4 -13 22 -12
16 0 25 -5 23 -13 -1 -8 2 -11 9 -7 13 9 91 -24 84 -35 -3 -5 4 -6 15 -3 12 3
20 0 20 -6 0 -7 5 -9 10 -6 6 3 13 -1 16 -9 3 -9 10 -13 15 -10 5 3 23 -2 41
-10 17 -9 37 -16 45 -16 7 0 13 -5 13 -11 0 -5 5 -7 12 -3 8 5 9 2 4 -11 -6
-15 -4 -16 10 -5 13 11 17 11 24 1 4 -8 13 -10 20 -6 7 4 14 -1 17 -15 4 -16
8 -18 14 -8 6 8 12 9 17 3 4 -5 16 -12 27 -13 11 -2 22 -8 23 -13 2 -5 8 -6
13 -3 6 3 15 1 22 -4 10 -8 49 -20 96 -28 8 -2 17 -6 20 -11 7 -9 9 -9 75 -18
26 -4 59 -4 72 -1 21 6 24 11 21 35 -3 16 -11 39 -17 52 -22 40 -130 147 -235
232 -107 85 -111 90 -119 128 -3 13 -7 35 -10 47 -4 18 -2 22 9 18 8 -3 17 -1
20 5 4 5 3 8 -2 7 -14 -5 -14 5 -2 39 6 18 15 30 21 27 6 -4 7 2 3 17 -7 22
-6 22 9 10 13 -11 19 -12 29 -2 9 10 8 11 -5 6 -11 -4 -18 -2 -18 4 0 7 14 11
35 9 19 -1 37 1 41 5 4 3 15 2 25 -3 10 -6 20 -6 23 -1 3 5 21 5 41 1 19 -4
37 -4 40 0 5 8 48 5 64 -5 6 -3 11 0 11 7 0 10 2 10 8 1 5 -8 13 -9 22 -3 8 5
21 5 31 -1 10 -5 20 -5 23 0 6 9 48 7 65 -4 6 -3 11 0 11 7 0 10 2 10 8 1 5
-8 13 -9 22 -3 8 5 21 5 31 -1 10 -5 20 -5 23 0 6 9 48 7 65 -4 6 -3 11 0 11
7 0 10 2 10 8 1 5 -8 13 -9 22 -3 8 5 21 5 31 -1 10 -5 20 -5 23 0 6 9 48 7
65 -4 6 -3 11 0 11 7 0 10 2 10 8 1 5 -8 13 -9 22 -3 8 5 21 5 31 -1 10 -5 20
-5 23 0 6 9 48 7 65 -4 6 -3 11 0 11 7 0 10 2 10 8 1 5 -8 13 -9 22 -3 8 5 21
5 31 -1 11 -6 20 -5 24 1 4 6 13 7 23 1 9 -5 26 -5 37 -1 11 4 28 3 38 -2 12
-6 17 -5 17 4 0 10 2 10 9 -1 6 -9 11 -10 15 -2 4 6 12 8 19 4 17 -10 57 -10
57 0 0 6 5 6 13 1 6 -5 26 -8 42 -7 47 4 169 3 174 -2 2 -3 10 0 18 6 7 6 13
7 13 2 0 -9 68 -8 77 1 3 2 18 0 34 -4 17 -5 31 -5 35 1 3 5 11 6 17 2 15 -9
49 -9 65 1 6 4 12 3 12 -1 0 -5 15 -8 33 -6 45 5 170 3 176 -2 2 -3 10 0 18 6
7 7 13 7 13 2 0 -6 10 -8 23 -6 l22 4 0 -275 0 -276 50 -1 c28 0 150 -1 273
-2 208 -2 222 -1 222 16 0 11 4 15 12 11 7 -5 8 -3 2 7 -13 22 -14 83 -1 91 7
4 8 8 2 8 -6 0 -11 29 -12 70 0 45 3 67 10 63 6 -4 7 -1 1 8 -14 22 -14 170 0
162 8 -5 8 -3 0 8 -6 8 -11 34 -10 59 1 41 3 45 26 45 14 1 31 4 38 8 6 5 12
5 12 0 0 -12 224 -10 232 2 5 7 8 7 8 0 0 -6 28 -10 68 -9 l69 1 0 -256 c1
-141 2 -263 2 -271 1 -14 36 -16 280 -16 196 0 278 3 273 10 -10 16 -9 286 1
286 4 0 5 6 0 13 -11 17 -12 107 -1 107 5 0 6 6 1 13 -12 19 -11 107 1 109 6
0 16 2 21 2 6 1 16 5 23 9 6 5 12 5 12 0 0 -4 14 -8 30 -8 17 -1 30 3 30 7 0
4 11 3 24 -2 14 -5 26 -5 28 0 2 4 21 11 43 14 22 4 42 11 43 16 2 6 8 8 12 5
10 -6 76 29 106 56 11 10 23 19 27 19 4 0 20 14 35 31 15 17 35 39 44 49 21
24 68 111 68 127 0 7 4 13 8 13 4 0 8 8 9 18 3 58 8 72 22 67 11 -4 10 -1 -3
14 -9 10 -13 21 -9 24 5 3 8 33 8 66 -1 38 2 61 9 61 8 0 8 2 0 8 -12 8 -13
200 -1 220 5 7 4 11 -1 10 -9 -3 -15 6 -11 15 6 13 2 307 -5 307 -5 0 -4 6 1
13 5 6 9 37 8 67 -1 30 3 58 9 62 8 5 8 8 0 8 -7 0 -10 70 -9 220 0 121 -3
220 -8 220 -4 0 -5 6 0 13 12 18 10 407 -2 407 -7 0 -7 3 0 8 12 9 14 212 2
212 -6 0 -6 5 0 13 10 13 8 648 -2 712 -4 22 -7 48 -8 58 -1 9 -5 17 -9 17 -4
0 -8 6 -8 13 0 6 -7 25 -15 41 -9 16 -13 36 -10 43 2 8 1 12 -4 8 -5 -3 -20 9
-33 27 -29 42 -96 108 -108 108 -6 0 -10 4 -10 9 0 11 -95 56 -151 72 -24 6
-64 13 -89 15 -59 4 -222 7 -235 4 -5 -1 -14 -2 -20 -1 -25 5 -215 2 -224 -3
-5 -4 -12 -2 -16 4 -4 6 -11 7 -17 4 -14 -9 -552 -9 -566 0 -7 4 -12 3 -12 -2
0 -10 -36 -9 -46 1 -4 3 -15 2 -25 -4 -14 -7 -19 -6 -19 3 0 8 -3 9 -8 3 -4
-5 -34 -10 -67 -10 l-60 0 -2 205 c-2 336 -7 397 -36 467 -14 34 -39 81 -56
106 -48 71 -146 162 -162 151 -5 -3 -9 0 -9 5 0 6 -7 11 -16 11 -9 0 -12 5 -8
13 4 6 4 9 0 5 -4 -3 -27 0 -49 9 -23 8 -51 17 -62 21 -11 3 -600 8 -1310 9
-1560 4 -1399 1 -1422 22 -10 9 -26 20 -37 24 -10 4 -16 13 -13 22 4 9 1 12
-9 8 -8 -3 -28 8 -46 26 -17 17 -35 31 -38 31 -14 0 -49 37 -42 45 4 5 1 5 -6
1 -15 -9 -55 22 -46 35 3 5 -1 7 -8 4 -7 -3 -25 6 -40 20 -15 14 -31 25 -37
25 -5 0 -11 4 -13 8 -1 5 -28 27 -60 50 -95 70 -111 88 -99 110 19 35 24 126
11 168 -15 44 -51 104 -63 104 -8 0 -23 11 -58 43 -10 9 -19 15 -19 12 0 -3
-19 4 -42 16 -24 12 -45 22 -48 21 -3 0 -20 6 -39 14 -18 8 -41 14 -51 14 -9
0 -20 3 -24 7 -3 4 -12 8 -19 9 -7 1 -36 7 -66 13 -29 6 -74 11 -98 11 -31 0
-42 3 -37 12 5 7 3 8 -6 3 -7 -4 -40 -9 -74 -11 -33 -2 -72 -6 -86 -9 -69 -16
-91 -15 -113 6 -28 26 -77 52 -85 45 -3 -3 -10 -1 -17 4 -7 5 -14 8 -16 6z
m818 -750 c25 -21 120 -92 171 -130 l44 -31 -107 -3 c-59 -1 -109 -1 -110 0
-2 2 -5 30 -8 64 -3 33 -9 73 -12 87 -8 31 -3 33 22 13z m-1252 -105 l0 -58
-47 -2 c-27 0 -48 3 -48 7 1 18 19 34 30 27 9 -5 11 -4 6 3 -4 7 4 24 18 39
15 15 26 31 26 35 0 5 3 8 8 8 4 0 7 -26 7 -59z"/>
<path d="M36 4262 c-3 -5 1 -9 9 -9 8 0 12 4 9 9 -3 4 -7 8 -9 8 -2 0 -6 -4
-9 -8z"/>
<path d="M113 3825 c0 -8 4 -12 9 -9 5 3 6 10 3 15 -9 13 -12 11 -12 -6z"/>
<path d="M9469 3303 c-13 -16 -12 -17 4 -4 16 13 21 21 13 21 -2 0 -10 -8 -17
-17z"/>
<path d="M4679 2958 c-6 -20 -6 -39 0 -42 4 -3 7 6 7 20 0 20 -4 32 -7 22z"/>
<path d="M4754 2900 c0 -13 4 -16 10 -10 7 7 7 13 0 20 -6 6 -10 3 -10 -10z"/>
<path d="M4836 2838 c3 -5 10 -6 15 -3 13 9 11 12 -6 12 -8 0 -12 -4 -9 -9z"/>
<path d="M4884 2822 c23 -26 23 -26 23 -7 0 8 -3 13 -5 10 -3 -3 -12 1 -21 7
-10 8 -9 4 3 -10z"/>
<path d="M4941 2816 c-9 -10 -9 -16 -1 -21 6 -4 9 -1 8 7 -2 8 7 13 25 12 30
-1 28 8 -2 13 -11 1 -24 -4 -30 -11z"/>
<path d="M4999 2793 c-13 -16 -12 -17 4 -4 9 7 17 15 17 17 0 8 -8 3 -21 -13z"/>
<path d="M5030 2786 c0 -2 7 -7 16 -10 8 -3 12 -2 9 4 -6 10 -25 14 -25 6z"/>
<path d="M549 2763 c-13 -16 -12 -17 4 -4 16 13 21 21 13 21 -2 0 -10 -8 -17
-17z"/>
<path d="M5090 2756 c0 -2 8 -10 18 -17 15 -13 16 -12 3 4 -13 16 -21 21 -21
13z"/>
<path d="M5230 2678 c0 -4 4 -8 9 -8 6 0 12 4 15 8 3 5 -1 9 -9 9 -8 0 -15 -4
-15 -9z"/>
<path d="M2080 2660 c-9 -6 -10 -10 -3 -10 6 0 15 5 18 10 8 12 4 12 -15 0z"/>
<path d="M5270 2661 c0 -6 4 -13 10 -16 6 -3 7 1 4 9 -7 18 -14 21 -14 7z"/>
<path d="M5330 2658 c0 -4 4 -8 9 -8 6 0 12 4 15 8 3 5 -1 9 -9 9 -8 0 -15 -4
-15 -9z"/>
<path d="M7679 2653 c-13 -16 -12 -17 4 -4 9 7 17 15 17 17 0 8 -8 3 -21 -13z"/>
<path d="M5359 2633 c-13 -16 -12 -17 4 -4 9 7 17 15 17 17 0 8 -8 3 -21 -13z"/>
<path d="M7553 2625 c0 -8 4 -12 9 -9 5 3 6 10 3 15 -9 13 -12 11 -12 -6z"/>
<path d="M555 2620 c3 -5 8 -10 11 -10 2 0 4 5 4 10 0 6 -5 10 -11 10 -5 0 -7
-4 -4 -10z"/>
<path d="M5394 2615 c3 -23 12 -26 13 -5 1 11 -2 20 -7 20 -4 0 -7 -7 -6 -15z"/>
<path d="M5445 2619 c-3 -4 2 -6 10 -5 21 3 28 13 10 13 -9 0 -18 -4 -20 -8z"/>
<path d="M3484 2586 c-15 -39 27 -181 59 -194 4 -2 7 -8 7 -13 0 -8 11 -24 45
-63 54 -63 86 -164 59 -187 -8 -6 -14 -17 -14 -24 0 -8 -4 -15 -8 -17 -4 -1
-18 -17 -30 -35 -50 -71 -13 -149 95 -204 37 -19 69 -34 72 -34 25 -2 116 -75
94 -75 -4 0 -2 -5 4 -11 15 -15 -1 -81 -32 -134 -14 -23 -22 -45 -18 -48 3 -4
2 -7 -3 -7 -14 0 -23 -85 -13 -120 18 -61 117 -127 220 -145 16 -3 48 -13 69
-22 46 -20 51 -37 45 -132 -5 -92 20 -144 77 -155 13 -2 30 -7 39 -11 10 -3
20 -1 24 5 5 8 11 8 20 0 9 -7 16 -6 25 5 7 8 16 12 21 9 5 -3 9 0 9 5 0 6 5
11 11 11 7 0 22 11 35 25 13 14 25 25 27 25 1 0 29 25 61 55 57 55 94 74 117
59 8 -5 9 -3 4 6 -6 10 0 11 24 7 45 -9 54 -12 70 -21 16 -11 92 -16 106 -8 6
4 15 7 22 8 7 1 29 17 48 36 32 30 43 53 58 125 5 21 18 27 82 38 11 2 32 8
46 13 23 9 28 8 38 -14 16 -37 75 -113 86 -114 6 0 19 -13 30 -29 11 -17 21
-28 23 -26 9 8 82 -38 75 -48 -3 -6 -1 -7 6 -3 6 4 26 3 44 -3 28 -9 90 -21
122 -23 32 -2 129 15 159 27 20 9 36 12 36 8 0 -5 4 -3 8 2 4 6 20 17 36 25
16 8 54 40 85 70 31 30 59 54 64 52 5 -1 6 2 3 7 -4 5 6 34 21 63 16 29 29 59
30 65 19 92 19 170 0 253 -9 45 -60 132 -104 178 -27 28 -47 55 -44 58 3 3 1
5 -4 4 -20 -4 -32 0 -53 20 -12 12 -22 19 -22 16 0 -3 -19 4 -42 14 -24 10
-54 20 -68 22 -14 2 -31 7 -37 11 -7 5 -13 5 -13 0 0 -4 -36 -8 -79 -7 -44 0
-78 -3 -75 -8 3 -4 -3 -9 -13 -10 -10 0 -23 -2 -28 -2 -6 -1 -35 -15 -65 -32
-105 -60 -187 -169 -214 -284 -15 -64 -14 -180 3 -222 10 -26 8 -28 -17 -34
-15 -3 -36 -9 -47 -12 -26 -8 -32 -9 -48 -11 -27 -2 -55 -37 -63 -76 -8 -49
-37 -91 -74 -110 -38 -20 -62 -19 -136 4 -99 31 -141 14 -269 -108 -65 -61
-103 -83 -150 -86 -69 -3 -99 33 -95 115 5 93 3 109 -15 136 -18 28 -61 49
-145 70 -125 32 -180 80 -180 154 0 17 15 64 34 104 41 88 51 132 37 168 -11
28 -62 88 -76 88 -4 0 -44 18 -88 40 -58 28 -89 49 -105 74 -28 40 -24 62 19
117 38 49 47 76 43 128 -4 42 -41 119 -71 149 -54 55 -106 159 -107 216 -1 40
-21 60 -32 32z"/>
<path d="M5455 2591 c-3 -5 -2 -12 3 -15 5 -3 9 1 9 9 0 17 -3 19 -12 6z"/>
<path d="M5505 2559 c-3 -4 2 -6 10 -5 21 3 28 13 10 13 -9 0 -18 -4 -20 -8z"/>
<path d="M5590 2556 c7 -7 13 -7 20 0 6 6 3 10 -10 10 -13 0 -16 -4 -10 -10z"/>
<path d="M5636 2561 c-3 -5 2 -15 12 -22 15 -12 16 -12 5 2 -7 9 -10 19 -6 22
3 4 4 7 0 7 -3 0 -8 -4 -11 -9z"/>
<path d="M5680 2540 c-12 -7 -10 -9 7 -7 12 0 19 5 17 9 -6 10 -6 10 -24 -2z"/>
</g>
</svg>
